<svg width="20" height="20" viewBox="0 0 20 20" fill="none" xmlns="http://www.w3.org/2000/svg">
<circle cx="10" cy="10" r="10" fill="#DBDBDB"/>
<path fill-rule="evenodd" clip-rule="evenodd" d="M10 20C15.5228 20 20 15.5228 20 10L17 7L3 13L10 20Z" fill="#F5F5F5"/>
<path d="M3 11H5V13L4 12L3 11Z" fill="#F5F5F5"/>
<path d="M3 9H5V11L4 10L3 9Z" fill="#F5F5F5"/>
<path d="M3 7H5V9L4 8L3 7Z" fill="#F5F5F5"/>
<path d="M3 13L10 8L17 13L10 18L3 13Z" fill="#481FFF"/>
<path d="M3 11L10 6L17 11L10 16L3 11Z" fill="#FF1FCE"/>
<path d="M3 9L10 4L17 9L10 14L3 9Z" fill="#FFC31F"/>
<path d="M3 7L10 2L17 7L10 12L3 7Z" fill="#FF1F1F"/>
<path fill-rule="evenodd" clip-rule="evenodd" d="M3 17H9C9 15.067 7.65685 13.5 6 13.5C4.34315 13.5 3 15.067 3 17Z" fill="#1E1E1E"/>
<path d="M8 12C8 13.1046 7.10457 14 6 14C4.89543 14 4 13.1046 4 12C4 10.8954 4.89543 10 6 10C7.10457 10 8 10.8954 8 12Z" fill="#1E1E1E"/>
</svg>
